<svg width="282" height="282" viewBox="0 0 282 282" fill="none" xmlns="http://www.w3.org/2000/svg">
<path d="M141 14.5C162.977 14.5 183.638 20.1034 201.641 29.9561L176.125 74.1514C165.631 68.6262 153.677 65.5 141 65.5C99.3025 65.5 65.5 99.3025 65.5 141C65.5 182.697 99.3025 216.5 141 216.5C167.426 216.5 190.68 202.921 204.166 182.372L206.706 178.5H171.5V143.5H267.474C266.142 212.21 210.029 267.5 141 267.5C71.136 267.5 14.5 210.864 14.5 141C14.5 71.136 71.136 14.5 141 14.5Z" fill="black" stroke="black" stroke-width="5"/>
<path d="M141 0.5C165.772 0.5 189.044 6.91105 209.252 18.1631L207.167 21.582C187.567 10.6988 165.007 4.5 141 4.5C65.6131 4.5 4.5 65.6131 4.5 141C4.5 216.387 65.6131 277.5 141 277.5C216.387 277.5 277.5 216.387 277.5 141C277.5 138.982 277.456 136.975 277.369 134.979L277.349 134.5H168.5V131.5H281.183C281.392 134.64 281.5 137.807 281.5 141C281.5 218.596 218.596 281.5 141 281.5C63.404 281.5 0.5 218.596 0.5 141C0.5 63.404 63.404 0.5 141 0.5Z" stroke="black"/>
<path fill-rule="evenodd" clip-rule="evenodd" d="M204.7 79.3995V72.0723C204.7 58.7775 215.579 48 229 48C242.42 48 253.3 58.7775 253.3 72.0723V79.3995C257.313 79.6966 259.927 80.4459 261.837 82.3385C265 85.4722 265 90.5156 265 100.602C265 110.689 265 115.733 261.837 118.866C258.673 122 253.582 122 243.4 122H214.6C204.418 122 199.326 122 196.163 118.866C193 115.733 193 110.689 193 100.602C193 90.5156 193 85.4722 196.163 82.3385C198.074 80.4459 200.687 79.6966 204.7 79.3995ZM210.1 72.0723C210.1 61.7319 218.562 53.3494 229 53.3494C239.438 53.3494 247.9 61.7319 247.9 72.0723V79.2177C246.521 79.2048 245.025 79.2048 243.4 79.2048H214.6C212.975 79.2048 211.479 79.2048 210.1 79.2177V72.0723ZM229 90.7952C230.491 90.7952 231.7 91.9927 231.7 93.4699V107.735C231.7 109.212 230.491 110.41 229 110.41C227.509 110.41 226.3 109.212 226.3 107.735V93.4699C226.3 91.9927 227.509 90.7952 229 90.7952Z" fill="black"/>
<line x1="63" y1="133.5" x2="101" y2="133.5" stroke="black" stroke-width="3"/>
<line x1="100.218" y1="133.72" x2="118.218" y2="122.72" stroke="black" stroke-width="3"/>
<circle cx="119" cy="123" r="5" fill="black"/>
<line x1="85.9715" y1="194.109" x2="113.631" y2="168.053" stroke="black" stroke-width="3"/>
<line x1="113.213" y1="168.75" x2="118.773" y2="148.401" stroke="black" stroke-width="3"/>
<circle cx="119.533" cy="148.068" r="5" transform="rotate(-43.2898 119.533 148.068)" fill="black"/>
<line y1="-1.5" x2="38" y2="-1.5" transform="matrix(-0.945808 -0.324726 -0.324726 0.945808 195.421 170.887)" stroke="black" stroke-width="3"/>
<line y1="-1.5" x2="21.095" y2="-1.5" transform="matrix(-0.637713 -0.770274 -0.770274 0.637713 159.48 158.548)" stroke="black" stroke-width="3"/>
<circle cx="5" cy="5" r="5" transform="matrix(-0.945808 -0.324726 -0.324726 0.945808 152.705 138.247)" fill="black"/>
<line x1="154.266" y1="59.5028" x2="141.528" y2="95.3043" stroke="black" stroke-width="3"/>
<line x1="141.583" y1="94.4934" x2="145.913" y2="115.139" stroke="black" stroke-width="3"/>
<circle cx="145.387" cy="115.783" r="5" transform="rotate(109.585 145.387 115.783)" fill="black"/>
</svg>
